<svg xmlns="http://www.w3.org/2000/svg" viewBox="0 0 64 64" width="64" height="64" role="img" aria-label="中文提示词">
  <defs>
    <linearGradient id="bg" x1="0" y1="0" x2="1" y2="1">
      <stop offset="0" stop-color="#2f6df6"/>
      <stop offset="1" stop-color="#1746b8"/>
    </linearGradient>
  </defs>
  <rect x="4" y="4" width="56" height="56" rx="16" fill="url(#bg)"/>
  <path d="M18 20h28a4 4 0 0 1 4 4v16a4 4 0 0 1-4 4H30l-8 7v-7h-4a4 4 0 0 1-4-4V24a4 4 0 0 1 4-4z"
        fill="#ffffff" opacity="0.16"/>
  <g fill="none" stroke="#ffffff" stroke-width="3.4" stroke-linecap="round">
    <rect x="15" y="19" width="34" height="24" rx="6"/>
    <path d="M25 50l7-7"/>
  </g>
  <text x="32" y="37.5" text-anchor="middle" font-family="'Microsoft YaHei','PingFang SC','Noto Sans SC',sans-serif"
        font-size="17" font-weight="700" fill="#ffffff">中</text>
</svg>
